<svg width="96" height="96" viewBox="0 0 96 96" fill="none" xmlns="http://www.w3.org/2000/svg">
  <rect width="96" height="96" rx="28" fill="#111827"/>
  <circle cx="48" cy="41" r="22" fill="#D7A87E"/>
  <path d="M25 39c3-17 15-26 31-23 13 2 20 12 17 27-8-7-16-11-29-11-8 0-14 3-19 7Z" fill="#3F2A1F"/>
  <circle cx="40" cy="44" r="3" fill="#111827"/>
  <circle cx="56" cy="44" r="3" fill="#111827"/>
  <path d="M39 55c5 4 13 4 18 0" stroke="#8A3D2D" stroke-width="4" stroke-linecap="round"/>
  <path d="M17 85c3-18 16-28 31-28s28 10 31 28H17Z" fill="#EF4444"/>
  <path d="M34 67h28" stroke="#FDE68A" stroke-width="5" stroke-linecap="round"/>
</svg>
