<svg width="96" height="96" viewBox="0 0 96 96" fill="none" xmlns="http://www.w3.org/2000/svg">
  <rect width="96" height="96" rx="28" fill="#201827"/>
  <circle cx="48" cy="42" r="21" fill="#8B5E3C"/>
  <path d="M29 37c1-15 10-24 23-24 10 0 18 6 20 18 2 8 0 15-2 18-6-8-13-13-25-13-7 0-12 1-16 1Z" fill="#111827"/>
  <circle cx="40" cy="44" r="3" fill="#0B0B0C"/>
  <circle cx="56" cy="44" r="3" fill="#0B0B0C"/>
  <path d="M42 55c4 3 8 3 12 0" stroke="#3B1D14" stroke-width="4" stroke-linecap="round"/>
  <path d="M16 85c3-18 16-28 32-28s29 10 32 28H16Z" fill="#FF4D4D"/>
  <path d="M31 69h34" stroke="#FFD166" stroke-width="5" stroke-linecap="round"/>
</svg>
